<svg xmlns="http://www.w3.org/2000/svg" xmlns:xlink="http://www.w3.org/1999/xlink" xml:space="preserve" overflow="hidden" viewBox="242.48 127.8 3771.25 780.92"><defs><linearGradient x1="253.075" y1="1096.95" x2="4074.43" y2="1096.95" gradientUnits="userSpaceOnUse" spreadMethod="reflect" id="fill0"><stop offset="0" stop-color="#FD0090" stop-opacity="1"/><stop offset="0.15" stop-color="#FF32C2" stop-opacity="1"/><stop offset="0.27" stop-color="#B13FE6" stop-opacity="1"/><stop offset="0.39" stop-color="#008CFF" stop-opacity="1"/><stop offset="0.5" stop-color="#00F8F8" stop-opacity="1"/><stop offset="0.61" stop-color="#008CFF" stop-opacity="1"/><stop offset="0.73" stop-color="#B13FE6" stop-opacity="1"/><stop offset="0.85" stop-color="#FF32C2" stop-opacity="1"/><stop offset="1" stop-color="#FD0090" stop-opacity="1"/></linearGradient></defs><g transform="translate(-59 -696)"><g><path d="M1058.05 979.333 1002.35 1138.22 1113.76 1138.22ZM3799.91 933.757 3799.91 1051.5 3823.33 1051.5C3847.81 1051.5 3866.59 1046.43 3879.67 1036.3 3892.75 1026.18 3899.29 1011.62 3899.29 992.626 3899.29 973.636 3892.75 959.077 3879.67 948.949 3866.59 938.821 3847.81 933.757 3823.33 933.757ZM3675.84 838.174 3868.91 838.174C3895.49 838.174 3918.7 842.078 3938.54 849.885 3958.37 857.692 3974.72 868.347 3987.59 881.851 4000.47 895.355 4010.17 910.969 4016.71 928.693 4023.25 946.417 4026.52 965.407 4026.52 985.663 4026.52 1021.96 4017.77 1051.39 4000.25 1073.97 3982.74 1096.54 3956.89 1111.84 3922.71 1119.86L4072.73 1315.46 3918.28 1315.46 3799.91 1131.89 3799.91 1315.46 3675.84 1315.46ZM2884.64 838.174 3008.71 838.174 3237.86 1129.99 3237.86 838.174 3361.29 838.174 3361.29 1315.46 3237.86 1315.46 3008.71 1023.64 3008.71 1315.46 2884.64 1315.46ZM2445.79 838.174 2569.86 838.174 2569.86 1315.46 2445.79 1315.46ZM1635.6 838.174 1758.41 838.174 1853.99 1092.64 1948.94 838.174 2071.74 838.174 2152.77 1315.46 2029.33 1315.46 1988.19 1040.73 1875.51 1315.46 1826.14 1315.46 1719.16 1040.73 1678.02 1315.46 1554.58 1315.46ZM990.322 838.174 1125.78 838.174 1307.46 1315.46 1175.16 1315.46 1146.67 1232.53 969.433 1232.53 940.948 1315.46 808.651 1315.46ZM303.082 838.174 427.15 838.174 427.15 1210.38 575.905 1210.38 575.905 1315.46 303.082 1315.46Z" fill="url(#fill0)" fill-rule="evenodd"/><text fill="#000000" fill-opacity="0" font-family="Arial,Arial_MSFontService,sans-serif" font-size="477.282" direction="ltr" writing-mode="lr-tb" x="303.082" y="1255.8">L A M I N R</text><g><g><g><g><path d="M223.003 130.503 245.527 130.889 268.052 132.425 290.576 135.077 313.101 138.779 339.379 144.302 365.658 150.934 399.444 160.717 448.247 176.238 504.56 193.948 534.59 202.348 560.87 208.683 587.15 213.825 609.675 217.133 632.199 219.324 654.723 220.331 677.248 220.113 699.772 218.661 722.296 215.995 744.821 212.165 767.345 207.25 793.62 200.285 819.9 192.192 853.687 180.527 906.247 160.892 958.802 141.59 988.833 131.649 1015.11 124.025 1037.64 118.488 1060.16 114.022 1082.69 110.743 1105.21 108.746 1123.98 108.11 1142.75 108.436 1161.52 109.736 1180.29 112.007 1199.06 115.233 1221.59 120.322 1244.11 126.666 1266.64 134.158 1292.92 144.178 1322.95 157.011 1360.49 174.49 1450.59 217.302 1476.86 228.432 1499.39 236.964 1521.91 244.332 1540.68 249.431 1559.45 253.467 1578.23 256.342 1596.99 257.971 1615.76 258.284 1630.78 257.554 1645.8 255.931 1660.81 253.407 1675.83 249.985 1694.6 244.46 1713.37 237.591 1732.14 229.45 1750.91 220.133 1773.43 207.58 1795.96 193.783 1825.99 174.016 1901.07 123.651 1923.6 110.137 1942.37 100.063 1961.14 91.3551 1976.16 85.5392 1991.17 80.8736 2006.19 77.4615 2021.21 75.3904 2036.22 74.731 2047.48 75.1928 2058.74 76.4891 2070 78.6252 2085.02 82.7727 2100.04 88.3752 2115.06 95.3755 2130.07 103.687 2145.09 113.198 2163.86 126.556 2182.63 141.236 2208.91 163.273 2261.47 207.949 2280.24 222.515 2299 235.583 2314.02 244.664 2329.04 252.304 2340.3 256.983 2351.56 260.689 2362.83 263.371 2374.09 264.991 2385.35 265.522 2396.61 264.951 2407.87 263.279 2419.14 260.521 2430.4 256.705 2441.66 251.878 2452.92 246.095 2467.94 237.021 2482.95 226.578 2501.73 211.959 2524.25 192.821 2584.31 140.752 2603.09 126.434 2618.1 116.313 2633.12 107.633 2644.38 102.188 2655.64 97.7344 2666.9 94.3252 2678.17 91.9988 2689.43 90.7784 2700.69 90.6715 2711.95 91.6696 2723.22 93.748 2734.48 96.8669 2745.74 100.973 2760.76 107.862 2775.78 116.191 2790.79 125.729 2809.56 138.963 2835.84 158.963 2877.13 190.434 2895.9 203.42 2910.92 212.749 2925.93 220.909 2940.95 227.728 2955.97 233.069 2967.23 236.047 2978.49 238.113 2989.76 239.257 3001.02 239.479 3012.28 238.793 3023.54 237.225 3038.56 233.829 3053.57 229.05 3068.59 223.036 3083.61 215.96 3102.38 205.918 3128.66 190.362 3188.72 154.097 3207.49 144.139 3226.26 135.431 3241.28 129.545 3256.29 124.735 3271.31 121.08 3286.33 118.633 3301.34 117.414 3316.36 117.421 3331.38 118.622 3346.39 120.962 3361.41 124.362 3380.18 129.951 3398.95 136.811 3421.47 146.349 3451.5 160.459 3507.82 187.201 3530.34 196.621 3549.11 203.445 3567.88 209.131 3586.65 213.528 3601.67 216.044 3616.69 217.63 3631.7 218.273 3646.72 217.977 3661.74 216.761 3680.5 214.012 3699.28 210.002 3718.05 204.877 3740.57 197.507 3766.85 187.673 3864.45 149.631 3886.98 142.711 3905.75 137.98 3924.52 134.333 3943.29 131.863 3962.06 130.634 3973.33 130.503" stroke="#00F8F8" stroke-width="19.7149" stroke-linecap="square" stroke-linejoin="round" stroke-miterlimit="4" stroke-opacity="1" fill="none" fill-rule="nonzero" transform="matrix(1 0 0 1.07198 88.3371 1306)"/></g><g><path d="M223.003 130.503 245.527 130.95 268.052 132.666 290.576 135.611 313.101 139.705 335.625 144.835 361.904 151.937 391.936 161.184 440.739 177.583 489.542 193.717 519.573 202.533 545.853 209.087 568.377 213.618 590.901 216.99 613.426 219.086 632.199 219.799 650.968 219.543 669.736 218.31 688.51 216.11 711.034 212.238 733.558 207.105 756.083 200.836 782.358 192.295 812.394 181.289 857.442 163.401 909.997 142.779 940.033 132.269 962.557 125.423 985.082 119.702 1003.85 115.926 1022.62 113.148 1041.39 111.439 1060.16 110.855 1078.93 111.428 1097.7 113.171 1116.47 116.076 1135.24 120.111 1154.01 125.226 1172.78 131.348 1195.31 139.892 1217.83 149.556 1247.87 163.781 1292.92 186.697 1337.96 209.386 1364.24 221.53 1386.76 230.844 1405.54 237.616 1424.31 243.327 1443.07 247.844 1461.85 251.051 1476.86 252.608 1491.88 253.229 1506.9 252.887 1521.91 251.564 1536.93 249.257 1551.95 245.973 1566.96 241.733 1585.73 235.138 1604.5 227.189 1623.27 218.008 1645.8 205.575 1668.32 191.891 1698.35 172.327 1765.93 127.656 1788.45 114.177 1807.22 104.046 1825.99 95.1803 1841.01 89.1544 1856.02 84.1917 1871.04 80.3862 1886.06 77.8159 1901.07 76.5447 1916.09 76.6182 1931.11 78.0613 1946.12 80.8806 1961.14 85.0596 1976.16 90.5611 1991.17 97.3253 2006.19 105.269 2021.21 114.291 2039.97 126.892 2062.5 143.573 2092.53 167.514 2145.09 209.724 2167.61 226.142 2186.38 238.341 2201.4 246.872 2216.42 254.134 2231.43 259.984 2242.69 263.373 2253.96 265.86 2265.22 267.414 2276.48 268.015 2287.74 267.649 2299 266.317 2310.27 264.027 2321.53 260.801 2332.79 256.667 2347.81 249.818 2362.83 241.557 2377.84 232.036 2396.61 218.645 2419.14 200.926 2456.68 169.454 2486.71 144.772 2505.48 130.535 2524.25 117.749 2539.26 108.833 2554.28 101.277 2569.3 95.2232 2580.56 91.7395 2591.82 89.2008 2603.09 87.6305 2614.35 87.0395 2625.61 87.4289 2636.87 88.7853 2648.14 91.085 2659.4 94.2936 2674.41 99.904 2689.43 106.911 2704.45 115.148 2723.22 126.886 2745.74 142.533 2787.04 173.161 2813.31 192.097 2832.09 204.55 2850.85 215.669 2865.87 223.379 2880.89 229.882 2895.9 235.066 2910.92 238.85 2925.93 241.184 2937.2 241.972 2952.21 241.747 2967.23 240.098 2982.24 237.092 2997.26 232.82 3012.28 227.4 3031.05 219.22 3049.82 209.768 3072.35 197.219 3158.69 147.69 3177.46 138.744 3196.23 131.061 3211.24 125.957 3226.26 121.867 3241.28 118.847 3256.29 116.928 3271.31 116.124 3286.33 116.423 3301.34 117.793 3316.36 120.185 3331.38 123.527 3350.15 128.914 3368.92 135.456 3391.44 144.516 3421.47 157.948 3485.29 187.094 3507.82 196.176 3530.34 204.035 3549.11 209.443 3567.88 213.672 3586.65 216.628 3605.42 218.256 3624.19 218.538 3642.97 217.492 3661.74 215.173 3680.5 211.67 3699.28 207.101 3721.8 200.419 3748.08 191.342 3785.62 176.983 3838.17 156.941 3864.45 148.137 3886.98 141.719 3905.75 137.354 3924.52 133.998 3943.29 131.735 3962.06 130.616 3973.33 130.503" stroke="#3CB5FF" stroke-width="19.7149" stroke-linecap="square" stroke-linejoin="round" stroke-miterlimit="4" stroke-opacity="1" fill="none" fill-rule="nonzero" transform="matrix(1 0 0 1.07198 88.3371 1306)"/></g><g><path d="M223.003 130.503 241.773 130.83 260.544 132.13 279.314 134.38 301.838 138.269 324.363 143.346 350.642 150.559 380.674 160.123 421.969 174.604 474.526 192.974 504.56 202.268 527.084 208.22 549.608 213.062 568.377 216.119 587.15 218.198 605.919 219.235 624.688 219.191 643.461 218.049 662.23 215.816 680.999 212.525 699.772 208.232 722.296 201.872 744.821 194.364 771.096 184.449 808.638 168.92 868.704 143.884 894.984 134.132 917.509 126.879 936.277 121.821 955.046 117.804 973.82 114.946 992.588 113.336 1011.36 113.044 1030.13 114.105 1048.9 116.53 1067.67 120.294 1086.44 125.345 1105.21 131.599 1123.98 138.942 1146.5 148.99 1172.78 162.044 1210.32 182.139 1259.13 208.132 1285.4 220.76 1307.93 230.212 1326.7 236.848 1345.47 242.163 1360.49 245.357 1375.5 247.54 1390.52 248.66 1405.54 248.678 1420.55 247.575 1435.57 245.346 1450.59 242.001 1465.6 237.571 1480.62 232.101 1499.39 223.897 1518.16 214.325 1536.93 203.577 1559.45 189.451 1589.49 169.266 1645.8 131.149 1668.32 117.283 1687.09 106.896 1705.86 97.8591 1720.88 91.7662 1735.9 86.8029 1750.91 83.0625 1765.93 80.6208 1780.94 79.533 1795.96 79.8352 1810.98 81.541 1825.99 84.6427 1841.01 89.1086 1856.02 94.886 1871.04 101.899 1886.06 110.052 1904.83 121.666 1923.6 134.611 1946.12 151.465 1983.66 181.215 2017.45 207.649 2039.97 223.966 2058.74 236.239 2073.76 244.957 2088.78 252.531 2103.79 258.832 2118.81 263.748 2133.83 267.192 2145.09 268.77 2156.35 269.466 2167.61 269.273 2178.88 268.189 2190.14 266.223 2201.4 263.394 2216.42 258.323 2231.43 251.848 2246.45 244.075 2261.47 235.139 2280.24 222.566 2302.76 205.874 2332.79 181.965 2377.84 145.935 2400.36 129.36 2419.14 116.916 2434.15 108.097 2449.17 100.448 2464.19 94.0945 2479.2 89.1377 2494.22 85.653 2505.48 84.0349 2516.74 83.2828 2528 83.3977 2539.26 84.3711 2550.53 86.1873 2565.54 89.875 2580.56 94.9339 2595.58 101.258 2610.59 108.72 2629.36 119.423 2651.89 133.856 2681.92 154.789 2734.48 191.781 2757 206.151 2775.78 216.85 2794.54 226.1 2809.56 232.306 2824.57 237.352 2839.59 241.17 2854.61 243.717 2869.62 244.972 2884.64 244.938 2899.66 243.641 2914.67 241.13 2929.69 237.471 2944.71 232.755 2963.48 225.53 2982.24 217.048 3004.77 205.583 3034.8 188.923 3091.12 157.366 3113.64 145.989 3132.41 137.521 3151.18 130.19 3169.95 124.157 3184.97 120.352 3199.98 117.503 3215 115.638 3230.02 114.768 3245.03 114.885 3260.05 115.968 3275.07 117.977 3293.83 121.71 3312.6 126.675 3331.38 132.711 3353.9 141.111 3383.93 153.695 3470.28 191.067 3492.8 199.334 3515.33 206.394 3534.1 211.191 3552.86 214.89 3571.64 217.42 3590.41 218.739 3609.18 218.838 3627.95 217.735 3646.72 215.48 3665.49 212.149 3688.02 206.875 3710.54 200.416 3736.81 191.724 3774.36 178.012 3830.67 157.404 3856.95 148.896 3879.47 142.609 3902 137.479 3920.77 134.212 3939.53 131.942 3958.31 130.716 3973.33 130.503" stroke="#008CFF" stroke-width="19.7149" stroke-linecap="square" stroke-linejoin="round" stroke-miterlimit="4" stroke-opacity="1" fill="none" fill-rule="nonzero" transform="matrix(1 0 0 1.07198 88.3371 1306)"/></g><g><path d="M223.003 130.503 241.773 130.877 260.544 132.314 279.314 134.788 298.085 138.246 320.609 143.582 343.133 150.042 369.412 158.701 406.952 172.376 463.264 193.027 489.542 201.565 512.066 207.842 534.59 212.896 553.359 216.02 572.133 218.05 590.901 218.915 609.675 218.573 628.443 217.01 647.212 214.242 665.986 210.317 684.754 205.311 707.279 198.033 729.803 189.591 759.834 177.025 849.931 138.19 872.455 130.179 891.229 124.551 909.997 120.061 928.771 116.86 943.784 115.308 958.802 114.704 973.82 115.079 988.833 116.446 1003.85 118.806 1018.87 122.137 1033.88 126.405 1052.65 132.975 1071.42 140.782 1093.95 151.533 1120.23 165.502 1214.08 217.048 1232.85 225.53 1251.62 232.755 1266.64 237.471 1281.65 241.13 1296.67 243.641 1311.68 244.938 1326.7 244.972 1341.72 243.717 1356.73 241.17 1371.75 237.352 1386.76 232.306 1401.78 226.1 1416.8 218.824 1435.57 208.394 1454.34 196.728 1480.62 178.896 1555.7 126.456 1574.47 114.976 1593.24 104.855 1608.26 97.9448 1623.27 92.2393 1638.29 87.8542 1653.3 84.8842 1664.57 83.6273 1675.83 83.2252 1687.09 83.688 1698.35 85.0177 1709.62 87.2076 1724.63 91.4359 1739.65 97.102 1754.66 104.118 1769.68 112.369 1784.7 121.719 1803.47 134.712 1825.99 151.758 1863.54 181.965 1897.32 208.753 1919.85 225.191 1938.61 237.474 1953.63 246.133 1968.65 253.592 1983.66 259.727 1998.68 264.432 2009.94 266.975 2021.21 268.649 2032.47 269.436 2043.73 269.333 2054.99 268.341 2066.25 266.473 2077.52 263.748 2092.53 258.832 2107.55 252.531 2122.56 244.957 2137.58 236.239 2156.35 223.966 2178.88 207.649 2208.91 184.213 2261.47 142.889 2283.99 126.701 2302.76 114.52 2317.78 105.84 2332.79 98.2435 2347.81 91.8376 2362.83 86.7078 2377.84 82.9186 2392.86 80.5124 2407.87 79.5089 2422.89 79.9047 2437.91 81.6756 2452.92 84.7747 2467.94 89.1372 2482.95 94.6781 2497.97 101.295 2516.74 110.903 2535.51 121.757 2558.04 136.031 2591.82 158.924 2636.87 189.451 2659.4 203.577 2681.92 216.34 2700.69 225.653 2719.46 233.562 2734.48 238.778 2749.5 242.94 2764.51 246.008 2779.53 247.957 2794.54 248.778 2809.56 248.482 2824.57 247.092 2839.59 244.651 2854.61 241.213 2873.38 235.621 2892.15 228.742 2910.92 220.76 2933.45 210.02 2963.48 194.363 3038.56 154.436 3061.08 143.812 3083.61 134.413 3102.38 127.708 3121.15 122.164 3139.92 117.877 3158.69 114.912 3177.46 113.304 3196.23 113.058 3215 114.148 3233.77 116.516 3252.54 120.082 3271.31 124.739 3293.83 131.586 3316.36 139.561 3346.39 151.455 3447.75 193.016 3474.03 201.872 3496.55 208.232 3515.33 212.525 3534.1 215.816 3552.86 218.049 3571.64 219.191 3590.41 219.235 3609.18 218.198 3627.95 216.119 3646.72 213.062 3669.24 208.22 3691.77 202.268 3718.05 194.205 3751.83 182.652 3830.67 155.194 3856.95 147.314 3879.47 141.531 3902 136.835 3924.52 133.369 3943.29 131.495 3962.06 130.582 3973.33 130.503" stroke="#B13FE6" stroke-width="19.7149" stroke-linecap="square" stroke-linejoin="round" stroke-miterlimit="4" stroke-opacity="1" fill="none" fill-rule="nonzero" transform="matrix(1 0 0 1.07198 88.3371 1306)"/></g><g><path d="M223.003 130.503 241.773 130.925 260.544 132.506 279.314 135.213 298.085 138.984 320.609 144.78 343.133 151.759 369.412 161.045 410.707 176.983 455.755 194.049 482.034 202.776 504.56 209.048 523.328 213.206 542.097 216.248 560.87 218.067 579.639 218.586 598.413 217.766 617.181 215.603 635.95 212.128 654.723 207.415 673.492 201.57 696.016 193.268 722.296 182.202 759.834 164.946 801.131 146.127 823.656 136.884 842.424 130.136 861.193 124.502 879.967 120.185 894.984 117.793 909.997 116.423 925.015 116.124 940.033 116.928 955.046 118.847 970.064 121.867 985.082 125.957 1000.09 131.061 1018.87 138.744 1037.64 147.69 1060.16 159.745 1090.19 177.219 1139 205.705 1161.52 217.421 1180.29 225.881 1195.31 231.568 1210.32 236.138 1225.34 239.471 1240.36 241.466 1255.37 242.052 1266.64 241.539 1277.9 240.2 1292.92 237.137 1307.93 232.644 1322.95 226.789 1337.96 219.667 1352.98 211.404 1371.75 199.709 1394.28 184.143 1431.81 156.348 1461.85 134.538 1480.62 122.021 1499.39 110.887 1514.4 103.243 1529.42 96.9152 1544.44 92.056 1555.7 89.4487 1566.96 87.7744 1578.23 87.0607 1589.49 87.3244 1600.75 88.5689 1612.01 90.7868 1623.27 93.959 1634.54 98.0542 1649.55 104.876 1664.57 113.132 1679.58 122.662 1698.35 136.079 1720.88 153.829 1758.42 185.317 1788.45 209.969 1807.22 224.179 1825.99 236.943 1841.01 245.855 1856.02 253.428 1871.04 259.522 1882.3 263.055 1893.57 265.659 1904.83 267.312 1916.09 268 1927.35 267.722 1938.61 266.483 1949.88 264.304 1961.14 261.212 1976.16 255.734 1991.17 248.812 2006.19 240.584 2021.21 231.207 2039.97 218.139 2062.5 200.98 2100.04 170.578 2133.83 143.573 2156.35 126.892 2175.12 114.291 2193.89 103.178 2208.91 95.5199 2223.92 89.0647 2238.94 83.889 2253.96 80.0471 2268.97 77.5714 2283.99 76.4718 2299 76.738 2314.02 78.3388 2329.04 81.2246 2344.05 85.3273 2359.07 90.565 2374.09 96.8408 2392.86 105.978 2411.63 116.333 2434.15 130.013 2464.19 149.63 2531.76 194.244 2554.28 207.743 2576.81 219.936 2595.58 228.882 2614.35 236.568 2633.12 242.881 2648.14 246.885 2663.15 249.925 2678.17 251.987 2693.18 253.063 2708.2 253.164 2723.22 252.305 2738.23 250.519 2757 247.042 2775.78 242.276 2794.54 236.342 2817.07 227.872 2839.59 218.183 2865.87 205.725 2907.17 184.762 2955.97 160.109 2986 146.223 3008.53 136.909 3031.05 128.784 3049.82 123.055 3068.59 118.364 3087.36 114.776 3106.13 112.333 3124.9 111.059 3143.67 110.951 3162.44 111.99 3181.21 114.134 3199.98 117.321 3222.51 122.41 3245.03 128.718 3271.31 137.354 3301.34 148.473 3353.9 169.453 3395.19 185.543 3425.23 196.101 3451.5 204.104 3474.03 209.823 3496.55 214.338 3515.33 217.105 3534.1 218.921 3552.86 219.763 3571.64 219.629 3590.41 218.535 3612.93 216.003 3635.46 212.23 3657.98 207.344 3684.26 200.446 3714.29 191.343 3759.34 176.302 3815.65 157.602 3845.69 148.762 3871.96 142.149 3894.48 137.52 3917.01 133.989 3939.53 131.651 3962.06 130.567 3973.33 130.503" stroke="#FF32C2" stroke-width="19.7149" stroke-linecap="square" stroke-linejoin="round" stroke-miterlimit="4" stroke-opacity="1" fill="none" fill-rule="nonzero" transform="matrix(1 0 0 1.07198 88.3371 1306)"/></g><g><path d="M223.003 130.503 241.773 130.975 260.544 132.705 279.314 135.655 298.085 139.749 316.855 144.878 339.379 152.196 365.658 161.952 410.707 180.155 448.247 194.81 470.772 202.553 493.297 209.06 512.066 213.306 530.835 216.318 545.853 217.757 560.87 218.287 575.888 217.88 590.901 216.528 605.919 214.243 624.688 210.118 643.461 204.679 662.23 198.068 684.754 188.849 711.034 176.819 786.114 141.429 808.638 132.556 827.407 126.429 842.424 122.535 857.442 119.654 872.455 117.875 887.473 117.266 902.491 117.869 917.509 119.704 932.522 122.76 947.54 127 962.557 132.36 977.57 138.746 996.344 147.989 1018.87 160.541 1048.9 178.764 1090.19 203.783 1108.97 214.048 1127.73 223.036 1142.75 229.05 1157.77 233.829 1172.78 237.225 1184.04 238.793 1195.31 239.479 1206.57 239.257 1217.83 238.113 1229.09 236.047 1240.36 233.069 1251.62 229.206 1266.64 222.746 1281.65 214.906 1296.67 205.852 1315.44 193.13 1337.96 176.414 1398.03 130.873 1416.8 118.471 1431.81 109.818 1446.83 102.549 1458.09 98.1287 1469.35 94.6741 1480.62 92.2438 1491.88 90.8824 1503.14 90.6192 1514.4 91.4685 1525.67 93.4276 1536.93 96.48 1548.19 100.591 1559.45 105.712 1574.47 114 1589.49 123.781 1604.5 134.831 1623.27 150.031 1649.55 172.888 1690.85 208.868 1709.62 223.78 1724.63 234.53 1739.65 243.966 1754.66 251.878 1765.93 256.705 1777.19 260.521 1788.45 263.279 1799.71 264.951 1810.98 265.522 1822.24 264.991 1833.5 263.371 1844.76 260.689 1856.02 256.983 1867.29 252.304 1882.3 244.664 1897.32 235.583 1912.33 225.262 1931.11 210.96 1953.63 192.36 2024.96 132.29 2043.73 118.36 2062.5 105.957 2077.52 97.3342 2092.53 89.9972 2107.55 84.0384 2122.56 79.5232 2137.58 76.4891 2148.84 75.1928 2160.11 74.731 2175.12 75.3904 2190.14 77.4615 2205.16 80.8736 2220.17 85.5392 2235.19 91.3551 2250.2 98.2041 2268.97 108.026 2291.5 121.309 2317.78 138.27 2415.38 203.104 2437.91 216.104 2456.68 225.858 2475.45 234.483 2494.22 241.87 2512.99 247.94 2531.76 252.636 2546.78 255.384 2561.79 257.232 2576.81 258.184 2595.58 258.141 2614.35 256.77 2633.12 254.138 2651.89 250.327 2670.66 245.431 2693.18 238.279 2715.71 229.926 2741.99 218.957 2775.78 203.482 2888.4 150.434 2914.67 139.729 2940.95 130.275 2963.48 123.343 2986 117.616 3008.53 113.184 3027.3 110.528 3046.07 108.839 3064.84 108.124 3083.61 108.377 3102.38 109.58 3124.9 112.228 3147.43 116.114 3169.95 121.131 3196.23 128.242 3222.51 136.48 3256.29 148.29 3316.36 170.823 3361.41 187.154 3391.44 196.941 3417.72 204.417 3440.24 209.837 3462.77 214.222 3485.29 217.478 3507.82 219.541 3530.34 220.377 3552.86 219.979 3575.39 218.373 3597.91 215.613 3620.44 211.781 3646.72 206.101 3673 199.324 3706.78 189.401 3763.09 171.379 3811.9 156.225 3841.93 147.97 3868.21 141.787 3894.48 136.802 3917.01 133.615 3939.53 131.515 3962.06 130.551 3973.33 130.503" stroke="#FD0090" stroke-width="19.7149" stroke-linecap="square" stroke-linejoin="round" stroke-miterlimit="4" stroke-opacity="1" fill="none" fill-rule="nonzero" transform="matrix(1 0 0 1.07198 88.3371 1306)"/></g></g></g></g></g></g></svg>